<?xml version="1.0" encoding="UTF-8"?>
<svg width="2612px" height="671px" viewBox="0 0 2612 671" xmlns="http://www.w3.org/2000/svg" xmlns:xlink="http://www.w3.org/1999/xlink" version="1.1">
 <!-- Generated by Pixelmator Pro 2.3.1 -->
 <g id="Instagram">
  <g id="Edges"/>
  <g id="Symbol">
   <g id="group">
    <path id="Tracé" d="M176.1 93.2 C159.9 99.5 146.2 107.9 132.5 121.6 118.8 135.2 110.4 149 104.1 165.1 98 180.7 93.9 198.6 92.7 224.8 91.5 251 91.2 259.4 91.2 326.2 91.2 393 91.5 401.4 92.7 427.6 93.9 453.8 98.1 471.7 104.1 487.3 110.4 503.5 118.8 517.2 132.5 530.9 146.2 544.6 159.9 553 176.1 559.3 191.7 565.4 209.6 569.5 235.8 570.7 262 571.9 270.4 572.2 337.2 572.2 404 572.2 412.4 571.9 438.6 570.7 464.8 569.5 482.7 565.3 498.3 559.3 514.5 553 528.2 544.6 541.9 530.9 555.6 517.2 564 503.5 570.3 487.3 576.4 471.7 580.5 453.8 581.7 427.6 582.9 401.4 583.2 393 583.2 326.2 583.2 259.4 582.9 251 581.7 224.8 580.5 198.6 576.3 180.7 570.3 165.1 564 149 555.6 135.2 542 121.6 528.3 107.9 514.6 99.5 498.4 93.2 482.8 87.1 464.9 83 438.7 81.8 412.5 80.6 404.1 80.3 337.3 80.3 270.5 80.3 262.1 80.6 235.9 81.8 209.6 82.9 191.7 87.1 176.1 93.2 Z M436.6 126 C460.6 127.1 473.6 131.1 482.3 134.5 493.8 139 502 144.3 510.6 152.9 519.2 161.5 524.5 169.7 529 181.2 532.4 189.9 536.4 202.9 537.5 226.9 538.7 252.8 538.9 260.6 538.9 326.3 538.9 392 538.6 399.8 537.5 425.7 536.4 449.7 532.4 462.7 529 471.4 524.5 482.9 519.2 491.1 510.6 499.7 502 508.3 493.8 513.6 482.3 518.1 473.6 521.5 460.6 525.5 436.6 526.6 410.7 527.8 402.9 528 337.2 528 271.5 528 263.7 527.7 237.8 526.6 213.8 525.5 200.8 521.5 192.1 518.1 180.6 513.6 172.4 508.3 163.8 499.7 155.2 491.1 149.9 482.9 145.4 471.4 142 462.7 138 449.7 136.9 425.7 135.7 399.8 135.5 392 135.5 326.3 135.5 260.6 135.8 252.8 136.9 226.9 138 202.9 142 189.9 145.4 181.2 149.9 169.7 155.2 161.5 163.8 152.9 172.4 144.3 180.6 139 192.1 134.5 200.8 131.1 213.8 127.1 237.8 126 263.7 124.8 271.5 124.6 337.2 124.6 402.9 124.6 410.7 124.8 436.6 126 Z" fill="#ebb6b6" fill-opacity="1" stroke="none"/>
    <path id="Tracé-1" d="M210.9 326.3 C210.9 396.1 267.5 452.6 337.2 452.6 406.9 452.6 463.5 396 463.5 326.3 463.5 256.6 407 200 337.2 200 267.4 200 210.9 256.5 210.9 326.3 Z M419.2 326.3 C419.2 371.6 382.5 408.3 337.2 408.3 291.9 408.3 255.2 371.6 255.2 326.3 255.2 281 291.9 244.3 337.2 244.3 382.5 244.3 419.2 281 419.2 326.3 Z" fill="#ebb6b6" fill-opacity="1" stroke="none"/>
    <path id="Tracé-2" d="M498.1 195 C498.1 211.292 484.892 224.5 468.6 224.5 452.308 224.5 439.1 211.292 439.1 195 439.1 178.708 452.308 165.5 468.6 165.5 484.892 165.5 498.1 178.708 498.1 195 Z" fill="#ebb6b6" fill-opacity="1" stroke="none"/>
   </g>
  </g>
 </g>
 <defs>
  <text id="string" transform="matrix(1.0 0.0 0.0 1.0 710.0 136.0)" font-family="Poppins-SemiBold, Poppins" y="302.0" x="1.0" font-size="288" text-decoration="none" fill="#ebb6b6">safrandeval</text>
 </defs>
 <use id="safrandeval" xlink:href="#string"/>
</svg>
